<?xml version="1.0" encoding="utf-8"?>
<!-- Generator: Adobe Illustrator 24.0.1, SVG Export Plug-In . SVG Version: 6.00 Build 0)  -->
<svg version="1.1" id="Capa_1" xmlns="http://www.w3.org/2000/svg" xmlns:xlink="http://www.w3.org/1999/xlink" x="0px" y="0px"
	 width="230.1px" height="68.4px" viewBox="0 0 230.1 68.4" style="enable-background:new 0 0 230.1 68.4;" xml:space="preserve">
<style type="text/css">
	.st0{fill:#FFFFFF;}
</style>
<g>
	<path class="st0" d="M21.2,8.6v0.8c-5.7,0.7-10.9,5-10.9,21.2c0,16.4,5.3,20.4,10.9,21.2v0.8c-11.3-1-18.8-9.2-18.8-22
		C2.4,17.7,9.9,9.6,21.2,8.6z M26.1,9.4V8.6c5,0.1,9,1,12.3,3.7l-0.7,9.4h-0.8C35.3,13.3,30.9,10,26.1,9.4z M36.9,39.4h0.8l0.7,9.5
		c-3.9,2.6-7.3,3.5-12.3,3.7v-0.9C31.1,51.1,36.1,47,36.9,39.4z"/>
	<path class="st0" d="M56,51.7v0.9c-8.2-0.7-12.5-7-12.5-14.6c0-7.6,4.3-13.9,12.5-14.6v0.8c-3.8,0.7-6.2,4-6.2,13.8
		S52.2,51.1,56,51.7z M59.1,52.6v-0.9c3.8-0.6,6.2-4,6.2-13.8s-2.4-13.1-6.2-13.8v-0.8c8.3,0.7,12.5,7,12.5,14.6
		C71.7,45.6,67.5,51.9,59.1,52.6z"/>
	<path class="st0" d="M86.5,52.1H76.2v-0.8c2.3-0.7,2.4-1.7,2.4-4.8V12.9c0-2.1-0.6-3-3.1-3.5V8.6L84,7v39.5c0,3.4,0.3,4.3,2.4,4.8
		V52.1z"/>
	<path class="st0" d="M99.7,51.3v0.8H89.5v-0.8c2.3-0.7,2.4-1.7,2.4-4.8V29.7c0-2.1-0.6-3.2-3.1-3.9v-0.7l8.4-1.8v23.2
		C97.2,49.8,97.6,50.8,99.7,51.3z M116.4,51.4v0.7h-10.3v-0.7c2.3-0.7,2.4-1.8,2.4-5V33.3c0-4.4-1.6-6.9-5.5-6.9
		c-1.4,0-2.6,0.6-3.5,1.5L98.9,27c1.7-2.1,4.2-3.7,7-3.7c5.7,0,8,3.5,8,9.9v13.2C113.9,49.8,114.2,50.8,116.4,51.4z M133,51.4v0.7
		h-10.3v-0.7c2.3-0.7,2.4-1.8,2.4-5V33.3c0-4.4-1.7-6.9-5.6-6.9c-1.4,0-2.6,0.6-3.5,1.5c-0.1-0.1-0.6-0.7-0.7-0.7
		c1.7-2.2,4.3-3.8,7.1-3.8c5,0,8,2.4,8,9.8v13.3C130.4,49.8,130.7,50.8,133,51.4z"/>
	<path class="st0" d="M162.2,48.2l0.8,0.3c-0.4,1.9-2.4,4.2-5.7,4.2c0,0-5.2,0.2-5.2-5.4V37.1c-7,1.7-10.2,4.3-10.2,8.1
		c0,1.8,1.1,4.8,4.8,4.8c1.2,0,2.1-0.2,2.9-0.7c0.1,0.1,0.5,0.8,0.6,1c-1.7,1.4-4,2.5-6.8,2.5c0,0-7,0.1-7-6.3
		c0-6.1,5.1-7.5,15.6-10.2v-3.5c0-5.7-2.6-9.2-6.9-8l-0.3-0.7c2.2-0.7,4.3-0.7,4.3-0.7c6.7,0,8.4,5,8.4,12.2v10.4c0,0,0,3.9,2.8,3.9
		C160.3,49.8,161.8,49.8,162.2,48.2z M139,32c-0.6-0.9-0.7-2.1-0.3-3c0.4-0.7,1.2-2.1,3.4-3.5l0.4,0.7c-0.9,0.7-1,1.3-0.7,1.4
		c0.7,0.1,1.3,0.4,1.8,1c1,1.3,0.7,3.1-0.6,4C141.7,33.5,140,33.3,139,32z"/>
	<path class="st0" d="M196.1,50.7v0.8l-6.7,1.1c-1.7,0.3-1.7-1.1-1.7-1.1v-3.4c-1.9,3.1-5.9,4.5-9,4.5c-8.2,0-12.8-6.5-12.8-15
		c0-8.9,5.4-13.6,12.8-14.2v0.9c-3.6,0.7-6.5,4-6.5,12.5c0,9.7,3.1,14.1,8.4,14.1c4,0,7.1-2.9,7.1-7.2V33c0-5.1-2.8-8-5.9-8.7v-0.9
		c2.3,0.2,4.3,1,5.9,2.1V12.8c0-2.1-0.6-2.9-3.1-3.4V8.6L193,7v40.4C193,50.3,193.6,50.7,196.1,50.7z"/>
	<path class="st0" d="M211.8,51.7v0.9c-8.2-0.7-12.5-7-12.5-14.6c0-7.6,4.3-13.9,12.5-14.6v0.8c-3.8,0.7-6.2,4-6.2,13.8
		S208,51.1,211.8,51.7z M215,52.6v-0.9c3.8-0.6,6.2-4,6.2-13.8s-2.4-13.1-6.2-13.8v-0.8c8.3,0.7,12.5,7,12.5,14.6
		C227.6,45.6,223.3,51.9,215,52.6z"/>
</g>
</svg>
